<?xml version="1.0" encoding="utf-8"?><!-- Uploaded to: SVG Repo, www.svgrepo.com, Generator: SVG Repo Mixer Tools -->
<svg width="800px" height="800px" viewBox="0 0 64 64" id="Layer_1" data-name="Layer 1" xmlns="http://www.w3.org/2000/svg"><defs><style>.cls-1{fill:none;stroke:#000000;stroke-linecap:round;stroke-linejoin:round;stroke-width:2px;}</style></defs><title>vanity, mirror, furniture, reflection, interior</title><path class="cls-1" d="M41.8,14A14,14,0,1,1,37,10.88"/><path class="cls-1" d="M49.14,24a17.14,17.14,0,0,1-34.27,0"/><path class="cls-1" d="M32,50H24.46a2,2,0,0,0-2,2h0a2,2,0,0,0,2,2h15a2,2,0,0,0,2-2h0a2,2,0,0,0-2-2H37.25"/><line class="cls-1" x1="31.97" y1="49.98" x2="32" y2="41.12"/><circle cx="34.59" cy="49.98" r="1"/><circle cx="39.69" cy="12.4" r="1"/><path class="cls-1" d="M22.75,20a6.29,6.29,0,0,1,3.92-4"/></svg>