<svg class="svg-icon" style="width: 1em; height: 1em;vertical-align: middle;fill: currentColor;overflow: hidden;" viewBox="0 0 1024 1024" version="1.1" xmlns="http://www.w3.org/2000/svg"><path d="M900.8 784H123.2c-32 0-59.2-25.6-59.2-59.2V235.2c0-32 25.6-59.2 59.2-59.2h779.2c32 0 59.2 25.6 59.2 59.2v491.2c-1.6 32-27.2 57.6-60.8 57.6zM123.2 208c-16 0-27.2 11.2-27.2 27.2v491.2c0 14.4 11.2 25.6 27.2 25.6h779.2c14.4 0 27.2-11.2 27.2-27.2V235.2c0-14.4-11.2-27.2-27.2-27.2H123.2zM752 880h-1.6l-225.6-32-225.6 32c-8 1.6-17.6-4.8-17.6-14.4-1.6-8 4.8-17.6 14.4-17.6l227.2-32h4.8l227.2 32c8 1.6 14.4 9.6 14.4 17.6-3.2 8-9.6 14.4-17.6 14.4z" fill="" /><path d="M528 848c-9.6 0-16-6.4-16-16v-48c0-9.6 6.4-16 16-16s16 6.4 16 16v48c0 9.6-6.4 16-16 16z" fill="" /></svg>